<svg width="20" height="21" viewBox="0 0 20 21" fill="none" xmlns="http://www.w3.org/2000/svg">
<path d="M12.1844 10.9114L15.4169 7.67556C15.6268 7.43702 15.738 7.12752 15.7278 6.80997C15.7177 6.49241 15.587 6.19063 15.3624 5.96597C15.1377 5.74131 14.8359 5.61063 14.5184 5.60049C14.2008 5.59035 13.8913 5.70152 13.6528 5.91139L10.4169 9.14389L7.17527 5.90139C7.05916 5.78528 6.92131 5.69318 6.76961 5.63034C6.6179 5.5675 6.45531 5.53516 6.2911 5.53516C6.1269 5.53516 5.9643 5.5675 5.81259 5.63034C5.66089 5.69318 5.52304 5.78528 5.40693 5.90139C5.29082 6.0175 5.19872 6.15534 5.13588 6.30705C5.07304 6.45875 5.0407 6.62135 5.0407 6.78556C5.0407 6.94976 5.07304 7.11236 5.13588 7.26406C5.19872 7.41577 5.29082 7.55361 5.40693 7.66972L8.64943 10.9114L5.41693 14.1464C5.29016 14.2597 5.18784 14.3977 5.11624 14.5519C5.04463 14.7062 5.00525 14.8734 5.00049 15.0434C4.99573 15.2133 5.0257 15.3825 5.08857 15.5405C5.15144 15.6985 5.24588 15.842 5.36612 15.9622C5.48635 16.0824 5.62986 16.1769 5.78785 16.2398C5.94584 16.3026 6.115 16.3326 6.28497 16.3278C6.45494 16.3231 6.62216 16.2837 6.77639 16.2121C6.93061 16.1405 7.06861 16.0382 7.18193 15.9114L10.4169 12.6789L13.6486 15.9114C13.8831 16.1459 14.2011 16.2776 14.5328 16.2776C14.8644 16.2776 15.1824 16.1459 15.4169 15.9114C15.6514 15.6769 15.7832 15.3588 15.7832 15.0272C15.7832 14.6956 15.6514 14.3776 15.4169 14.1431L12.1844 10.9114Z" fill="#FDA11E"/>
</svg>
