<svg width="16" height="18" viewBox="0 0 16 18" fill="none" xmlns="http://www.w3.org/2000/svg">
<path d="M11.3914 0H3.98511C3.00334 0.00119089 2.06212 0.396661 1.3679 1.09966C0.673686 1.80267 0.283158 2.7558 0.281982 3.75V10.5C0.283175 11.3989 0.602644 12.2675 1.18238 12.9481C1.76211 13.6288 2.56367 14.0763 3.44149 14.2095L1.86914 16.8638C1.77218 17.034 1.74511 17.2361 1.79376 17.4264C1.8424 17.6167 1.96288 17.78 2.12926 17.8812C2.29564 17.9825 2.49462 18.0136 2.68339 17.9677C2.87215 17.9219 3.0356 17.8029 3.13857 17.6362L5.14493 14.25H10.2315L12.2379 17.6362C12.3409 17.8029 12.5043 17.9219 12.6931 17.9677C12.8818 18.0136 13.0808 17.9825 13.2472 17.8812C13.4136 17.78 13.5341 17.6167 13.5827 17.4264C13.6314 17.2361 13.6043 17.034 13.5073 16.8638L11.935 14.2095C12.8128 14.0763 13.6144 13.6288 14.1941 12.9481C14.7738 12.2675 15.0933 11.3989 15.0945 10.5V3.75C15.0933 2.7558 14.7028 1.80267 14.0086 1.09966C13.3143 0.396661 12.3731 0.00119089 11.3914 0ZM8.42886 8.25V4.5H13.6132V8.25H8.42886ZM1.76323 8.25V4.5H6.94761V8.25H1.76323ZM3.98511 1.5H11.3914C11.8508 1.50007 12.2989 1.64435 12.674 1.91298C13.0491 2.1816 13.3327 2.56137 13.4858 3H1.89062C2.04376 2.56137 2.3274 2.1816 2.70249 1.91298C3.07759 1.64435 3.52569 1.50007 3.98511 1.5ZM11.3914 12.75H3.98511C3.39583 12.75 2.83069 12.5129 2.414 12.091C1.99732 11.669 1.76323 11.0967 1.76323 10.5V9.75H3.24448V10.5C3.24448 10.6989 3.32251 10.8897 3.46141 11.0303C3.6003 11.171 3.78868 11.25 3.98511 11.25C4.18153 11.25 4.36991 11.171 4.50881 11.0303C4.6477 10.8897 4.72573 10.6989 4.72573 10.5V9.75H10.6507V10.5C10.6507 10.6989 10.7288 10.8897 10.8677 11.0303C11.0066 11.171 11.1949 11.25 11.3914 11.25C11.5878 11.25 11.7762 11.171 11.9151 11.0303C12.054 10.8897 12.132 10.6989 12.132 10.5V9.75H13.6132V10.5C13.6132 11.0967 13.3791 11.669 12.9625 12.091C12.5458 12.5129 11.9806 12.75 11.3914 12.75Z" fill="#FDA11E"/>
</svg>
