<svg width="28" height="29" viewBox="0 0 28 29" fill="none" xmlns="http://www.w3.org/2000/svg">
<path d="M8.55446 17.5006H11.8959C10.3244 16.8874 9.18984 15.3295 9.18984 13.5192C9.18984 11.134 11.1424 9.1814 13.5234 9.1814C15.9045 9.1814 17.857 11.134 17.857 13.5192C17.857 15.3295 16.7224 16.8874 15.1509 17.5006H18.4828C19.41 16.418 19.9441 15.0251 19.9441 13.5192C19.9441 9.99094 17.0304 7.08469 13.5234 7.08469C10.0069 7.08469 7.10273 9.98883 7.10273 13.5192C7.10273 15.0251 7.63899 16.418 8.55446 17.5006ZM1.12101 14.208L3.83719 14.2102C4.48453 14.2102 4.97742 13.7461 4.96781 13.1702C4.9582 12.6061 4.48453 12.1345 3.83719 12.1345H1.12101C0.477889 12.1345 0 12.5965 0 13.1702C0 13.7461 0.479998 14.208 1.12101 14.208ZM7.47023 7.47023C7.86726 7.06149 7.86516 6.39305 7.40836 5.93625L5.48531 4.01742C5.0264 3.55641 4.36969 3.56391 3.96094 3.96305C3.5543 4.36008 3.5543 5.02851 4.0132 5.48953L5.93625 7.40625C6.39305 7.86305 7.0711 7.87898 7.47023 7.47023ZM13.5234 4.96992C14.0972 4.96031 14.5612 4.47281 14.5612 3.8393V1.12101C14.5612 0.47578 14.0972 0 13.5234 0C12.9476 0 12.4856 0.47578 12.4856 1.12101V3.8393C12.4856 4.47281 12.9476 4.97953 13.5234 4.96992ZM19.5766 7.47023C19.9758 7.86937 20.6538 7.86305 21.1106 7.40625L23.0337 5.48953C23.4926 5.02851 23.483 4.36969 23.0742 3.96305C22.6868 3.5543 22.0205 3.55641 21.552 4.01742L19.6289 5.93625C19.1817 6.39305 19.1679 7.0732 19.5766 7.47023ZM23.2097 14.208L25.9259 14.2102C26.5711 14.2102 27.0469 13.7461 27.0469 13.1702C27.0469 12.6061 26.5711 12.1345 25.9259 12.1345H23.2097C22.5645 12.1345 22.0673 12.5965 22.0791 13.1702C22.0887 13.7461 22.5666 14.208 23.2097 14.208Z" fill="black"/>
<path d="M1.66115 18.7402H25.3375C25.7931 18.7402 26.1369 18.4027 26.1369 17.9534C26.1369 17.5041 25.7931 17.1666 25.3375 17.1666H1.66115C1.21302 17.1666 0.859588 17.5041 0.859588 17.9534C0.859588 18.4027 1.21302 18.7402 1.66115 18.7402ZM2.64834 22.5337C2.98373 22.5337 3.26591 22.2516 3.26591 21.9023C3.26591 21.5573 2.98373 21.2752 2.64834 21.2752C2.28951 21.2752 2.01693 21.5573 2.01693 21.9023C2.01693 22.2516 2.28951 22.5337 2.64834 22.5337ZM7.59365 22.5337C7.94076 22.5337 8.22295 22.2516 8.22295 21.9023C8.22295 21.5573 7.94076 21.2752 7.59365 21.2752C7.24654 21.2752 6.96435 21.5573 6.96435 21.9023C6.96435 22.2516 7.24654 22.5337 7.59365 22.5337ZM12.5507 22.5337C12.8861 22.5337 13.1683 22.2516 13.1683 21.9023C13.1683 21.5573 12.8861 21.2752 12.5507 21.2752C12.1919 21.2752 11.9193 21.5573 11.9193 21.9023C11.9193 22.2516 12.1919 22.5337 12.5507 22.5337ZM17.496 22.5337C17.8431 22.5337 18.1253 22.2516 18.1253 21.9023C18.1253 21.5573 17.8431 21.2752 17.496 21.2752C17.1489 21.2752 16.8667 21.5573 16.8667 21.9023C16.8667 22.2516 17.1489 22.5337 17.496 22.5337ZM22.453 22.5337C22.7884 22.5337 23.0706 22.2516 23.0706 21.9023C23.0706 21.5573 22.7884 21.2752 22.453 21.2752C22.0942 21.2752 21.8216 21.5573 21.8216 21.9023C21.8216 22.2516 22.0942 22.5337 22.453 22.5337ZM1.14834 25.3793C1.49545 25.3793 1.77763 25.0971 1.77763 24.7404C1.77763 24.4029 1.49545 24.1207 1.14834 24.1207C0.80123 24.1207 0.519043 24.4029 0.519043 24.7404C0.519043 25.0971 0.80123 25.3793 1.14834 25.3793ZM6.10537 25.3793C6.44076 25.3793 6.72295 25.0971 6.72295 24.7404C6.72295 24.4029 6.44076 24.1207 6.10537 24.1207C5.74654 24.1207 5.46435 24.4029 5.46435 24.7404C5.46435 25.0971 5.74654 25.3793 6.10537 25.3793ZM11.0507 25.3793C11.3978 25.3793 11.68 25.0971 11.68 24.7404C11.68 24.4029 11.3978 24.1207 11.0507 24.1207C10.7036 24.1207 10.4214 24.4029 10.4214 24.7404C10.4214 25.0971 10.7036 25.3793 11.0507 25.3793ZM16.0077 25.3793C16.3431 25.3793 16.6253 25.0971 16.6253 24.7404C16.6253 24.4029 16.3431 24.1207 16.0077 24.1207C15.6489 24.1207 15.3667 24.4029 15.3667 24.7404C15.3667 25.0971 15.6489 25.3793 16.0077 25.3793ZM20.953 25.3793C21.3001 25.3793 21.5823 25.0971 21.5823 24.7404C21.5823 24.4029 21.3001 24.1207 20.953 24.1207C20.6059 24.1207 20.3237 24.4029 20.3237 24.7404C20.3237 25.0971 20.6059 25.3793 20.953 25.3793ZM25.9101 25.3793C26.2454 25.3793 26.5276 25.0971 26.5276 24.7404C26.5276 24.4029 26.2454 24.1207 25.9101 24.1207C25.5512 24.1207 25.269 24.4029 25.269 24.7404C25.269 25.0971 25.5512 25.3793 25.9101 25.3793ZM4.60537 28.2035C4.95248 28.2035 5.22295 27.9213 5.22295 27.5646C5.22295 27.2271 4.95248 26.947 4.60537 26.947C4.24654 26.947 3.97607 27.2271 3.97607 27.5646C3.97607 27.9213 4.24654 28.2035 4.60537 28.2035ZM9.5624 28.2035C9.89779 28.2035 10.18 27.9213 10.18 27.5646C10.18 27.2271 9.89779 26.947 9.5624 26.947C9.20357 26.947 8.92139 27.2271 8.92139 27.5646C8.92139 27.9213 9.20357 28.2035 9.5624 28.2035ZM14.5077 28.2035C14.8527 28.2035 15.1253 27.9213 15.1253 27.5646C15.1253 27.2271 14.8527 26.947 14.5077 26.947C14.1489 26.947 13.8784 27.2271 13.8784 27.5646C13.8784 27.9213 14.1489 28.2035 14.5077 28.2035ZM19.4647 28.2035C19.8001 28.2035 20.0823 27.9213 20.0823 27.5646C20.0823 27.2271 19.8001 26.947 19.4647 26.947C19.1059 26.947 18.8237 27.2271 18.8237 27.5646C18.8237 27.9213 19.1059 28.2035 19.4647 28.2035ZM24.4101 28.2035C24.7551 28.2035 25.0276 27.9213 25.0276 27.5646C25.0276 27.2271 24.7551 26.947 24.4101 26.947C24.0512 26.947 23.7808 27.2271 23.7808 27.5646C23.7808 27.9213 24.0512 28.2035 24.4101 28.2035Z" fill="black"/>
</svg>
